<svg xmlns="http://www.w3.org/2000/svg" xmlns:xlink="http://www.w3.org/1999/xlink" width="118" height="42"><defs><path id="a" d="M.392.207h5.93v3.711H.391z"/><path id="c" d="M.77.173h26.435v4.812H.77z"/></defs><g fill="none" fill-rule="evenodd"><path fill="#00AEC7" d="M101.748 35.141c.04.01.074.044.063.125-.432.572-1.142 1.223-2.072 1.888a21.897 21.897 0 01-3.112 1.83c-1.186.573-2.226 1.055-3.322 1.348-1.228.32-2.3.438-3.186.339-.717-.076-1.308-.287-1.76-.653-.024-.015-.033-.056-.034-.089.01-.053.055-.09.112-.107a45.829 45.829 0 007.631-1.96c2.317-.807 4.256-1.742 5.68-2.721m-.228-1.331c-1.495.896-4.545 2.212-7.211 2.972-3.176.918-5.723 1.365-7.439 1.127-1.498-.217-2.248-.915-2.474-1.172-.035-.031-.076-.064-.057-.11.008-.054.05-.098.116-.109l.577-.044c1.27-.093 3.545-.156 6.198-.554 3.068-.458 7.992-1.354 10.246-2.247.05.011.08.05.043.138"/><g transform="translate(95.02 37.529)"><mask id="b" fill="#fff"><use xlink:href="#a"/></mask><path fill="#00AEC7" d="M6.252.208c.043.003.084.035.064.113-.55 1.33-1.174 2.333-2.406 2.959-2.16 1.085-3.297.475-3.447.404a.155.155 0 01-.071-.12.112.112 0 01.097-.096c.94-.292 3.774-1.357 5.695-3.243a.101.101 0 01.068-.017" mask="url(#b)"/></g><path fill="#00AEC7" d="M115.51 17.257c.037.018.056.05.056.081-.011.041-.042.069-.111.064-.647-.186-2.022-.558-3.759-1.028-3.975-1.072-18.985-5.024-19.236-5.09l-.073-.022c-.897-.282-1.634-.722-2.207-1.335a3.832 3.832 0 01-.463-.583c-.5-.764-.63-1.88-.653-2.085a.141.141 0 01.034-.096c.031-.03.067-.037.15-.025l2.456.948c5.828 2.232 21.293 8.162 23.807 9.17m-2.523-2.362c.02.097-.024.126-.104.108-.878-.44-2.876-1.383-4.882-2.37-1.697-.84-13.288-6.24-14.077-6.635l-1.387-.705c-.203-.099-.388-.215-.576-.329-.546-.332-.83-.57-1.132-.944-.242-.313-.432-.7-.588-1.066-.333-.83-.318-1.922-.303-2.118a.1.1 0 01.058-.088c.027-.019.066-.023.144.001l1.448.876.772.475 4.251 2.567c5.925 3.661 14.218 8.88 16.376 10.228"/><g transform="translate(90.122 14.019)"><mask id="d" fill="#fff"><use xlink:href="#c"/></mask><path fill="#00AEC7" d="M27.139 4.836a.082.082 0 01.066.082c0 .04-.039.065-.096.067C24.827 4.825 4.283 3.48 4.283 3.48a2.542 2.542 0 01-.528-.093C2.124 2.877 1.172 1.624.782.37.77.321.76.274.78.23.812.196.864.168.91.173c.01 0 24.23 4.299 26.23 4.663" mask="url(#d)"/></g><path fill="#00AEC7" d="M116.253 20.24c.039.003.08.047.077.088a.096.096 0 01-.073.067c-.85.135-16.454 2.332-16.56 2.344-.098.018-.188.03-.278.03-.087 0-.175.001-.265-.012-.74-.076-1.464-.434-2.118-1.12-.332-.35-.636-.908-.711-1.133-.025-.03-.025-.066-.002-.104a.167.167 0 01.105-.058s5.238-.037 8.544-.044c2.46-.003 5.092-.015 7.221-.025 1.858-.009 3.334-.012 4.06-.033m-1.172 1.608c.032 0 .092-.013.101.024.004.025.055.07-.028.112-.502.341-11.712 5.017-11.826 5.055-.614.214-1.304.324-1.803-.52-.21-.352-.393-.639-.476-.773-.034-.051-.158-.184.17-.27 0 0 3.161-.858 5.97-1.584 3.247-.823 6.924-1.772 7.892-2.044m-4.922 7.772c.046.005.077.045.055.134-1.083 1.257-5.07 5.67-6.871 7.615-.192.192-.286.107-.217-.09 0 0 .34-.865.482-1.528.093-.406.183-.734.405-.914 2.34-1.99 4.592-3.961 6.079-5.192l.067-.025zm3.67-5.592c.05.014.078.048.05.14-1.09.92-6.097 5.13-8.794 7.356l-.092.075c-.787.598-1.313.74-1.405-.557-.03-.312-.066-.57-.066-.57-.052-.27.036-.269.136-.332.876-.546 2.563-1.492 3.903-2.304 2.393-1.437 5.19-3.15 6.268-3.808"/><path fill="#0033A0" d="M74.254 23.59c0 3.2-1.84 6.242-5.825 6.242-3.565 0-6.117-2.391-5.954-8.16.16-5.53 2.821-7.961 6.34-7.961.274 0 .539-.015.785-.033v.003h4.654v9.908zM69.665 9.965v.003H68.65c-5.366.009-10.412 3.96-10.631 11.66-.2 7.003 3.45 11.903 9.62 11.903 5.074 0 6.852-3.53 6.852-3.53.292 2.365 1.572 3.084 4.118 3.084V13.26h.003V9.966h-8.946zm-35.213 0l.014 16.036c.001 2.337-1.928 3.507-4.486 3.507-2.687 0-4.447-1.17-4.447-3.507l-.03-11.998c-.005-3.421-2.146-4.038-4.025-4.038v17.018c0 4.295 3.862 6.404 8.373 6.404 4.376 0 8.668-2.11 8.664-6.404l-.004-12.46c0-3.361-1.263-4.558-4.06-4.558zm17.949 0c-5.006 0-8.45 2.89-8.45 8.844v14.276h4.034V18.671c0-3.066 1.646-4.9 4.762-4.9h1.196c3.534 0 4.112-1.827 4.112-3.805h-5.654zM11.91 20.324l-4.936-1.36c-1.359-.37-2.598-.964-2.598-2.623 0-1.728 1.042-2.57 3.238-2.57h4.391c1.943 0 4.256-.645 4.259-3.805L8 9.978c-5.088.004-8 2.573-8 6.254 0 3.43 2.176 5.356 6.056 6.387l4.3 1.139c1.777.478 2.41 1.59 2.41 2.733 0 1.732-1.095 2.78-3.766 2.796l-8.241.065v3.734h8.38c5.091 0 8.002-2.73 8.002-6.328 0-3.618-1.423-5.402-5.23-6.434z"/></g></svg>