<?xml version="1.0" encoding="utf-8"?>
<!-- Generator: Adobe Illustrator 22.0.0, SVG Export Plug-In . SVG Version: 6.00 Build 0)  -->
<svg version="1.1" id="Capa_1" xmlns="http://www.w3.org/2000/svg" xmlns:xlink="http://www.w3.org/1999/xlink" x="0px" y="0px"
	 viewBox="0 0 720 338.6" style="enable-background:new 0 0 720 338.6;" xml:space="preserve">
<style type="text/css">
	.st0{fill:#455564;}
	.st1{fill:#EC8325;}
</style>
<g>
	<path class="st0" d="M42.2,289.1l3.4,4.1c-4.8,4.6-10.7,7-17.2,7c-13.9,0-22.7-8.8-22.7-27.2c0-20.4,12.5-27.3,23.2-27.3
		c5.5,0,12.2,1.8,17.1,8.7l-4.4,3.4c-3.4-4-7.4-6.7-12.9-6.7c-10.1,0-16.5,8.2-16.5,21.5c0,13.9,5.3,22.3,16.6,22.3
		C33.7,294.9,37.9,293,42.2,289.1"/>
	<path class="st0" d="M67.7,258.8c5.5,0,16.2,1.7,16.2,19.6c0,15.4-7.7,21.9-17.6,21.9c-10.1,0-16.2-6.8-16.2-21.1
		C50.1,262.9,59.8,258.8,67.7,258.8 M77.6,279.8c0-9.5-2.8-16.2-10.5-16.2c-7.5,0-10.9,6.3-10.9,14.9c0,7.8,1.6,17.1,10.6,17.1
		C74.4,295.6,77.6,288.4,77.6,279.8"/>
	<path class="st0" d="M93.6,299.3v-33.4l-0.6-5.9h5.1l0.7,5.6c2.8-4.4,7.3-6.7,12.1-6.7c5.2,0,9.2,2.1,11.3,7.4
		c2.5-4.9,7.3-7.4,12.3-7.4c8.2,0,12.7,4.9,12.7,13.9v26.5h-6.1v-24.9c0-5.6-1.2-10.7-8.2-10.7c-5.5,0-9.5,4.6-9.5,9.4v26.1h-6.1
		v-24.8c0-5.1-0.8-10.8-8.2-10.8c-5.6,0-9.6,4.8-9.6,9.8v25.7H93.6z"/>
	<path class="st0" d="M164.9,315.9h-6.2v-54.7c5.5-1.6,10.3-2.4,14.3-2.4c12.5,0,18,7,18,20.4c0,13.8-6.1,21.2-16,21.2
		c-4,0-7.6-1.3-10.1-3V315.9z M172.3,264c-2.8,0-5.4,0.6-7.4,1.3v26.4c2.3,2,6.1,3.5,9.7,3.5c7.4,0,10.3-7.3,10.3-15.3
		C184.9,270.8,182.5,264,172.3,264"/>
	<path class="st0" d="M231.4,292.4l0.6,6.9h-5.5l-0.5-4.7l-0.2-0.1c-2,2.9-5.4,5.9-11.6,5.9c-11,0-15.7-7.6-15.7-19.1
		c0-14,6.7-22.5,19.9-22.5c2.5,0,7.9,0.6,13,2.5V292.4z M225.3,265c-1.4-0.6-4.6-1.3-7.9-1.3c-9.5,0-12.7,7.8-12.7,17.9
		c0,6.9,2.1,14.3,10.4,14.3c6.7,0,10.3-4.6,10.3-9V265z"/>
	<path class="st0" d="M243.1,299.3v-33.4l-0.4-5.9h5.3l0.7,5.7c3-4.4,7.6-6.8,12.7-6.8c8.2,0,12.6,4.6,12.6,13.6v26.8h-6.2v-24.9
		c0-5.9-1.3-10.6-7.9-10.6c-6.1,0-10.7,5-10.7,9.7v25.8H243.1z M248.4,247.4c1.9-1.5,4.3-2.1,6.3-2.1c4,0,6.8,2,10.3,2
		c1.7,0,3.3-0.6,4.8-1.3l0.6,4.8c-1.6,0.9-3.1,1.4-5.2,1.4c-3.4,0-7.5-1.7-10.5-1.7c-2,0-3.7,0.5-5.6,1.6L248.4,247.4z"/>
	<path class="st0" d="M291.6,238.2c2.1,0.6,4.9,1.4,4.9,3.6c0,1-0.7,2.1-1.7,3.3c-1.9,2.1-5.3,5.5-9.4,9.4l-2.5-2L291.6,238.2z
		 M285.6,259.9h6.2v39.4h-6.2V259.9z"/>
	<path class="st0" d="M334,292.4l0.6,6.9h-5.5l-0.5-4.7l-0.2-0.1c-2,2.9-5.4,5.9-11.6,5.9c-11,0-15.7-7.6-15.7-19.1
		c0-14,6.7-22.5,19.9-22.5c2.5,0,7.9,0.6,13,2.5V292.4z M327.9,265c-1.4-0.6-4.6-1.3-7.9-1.3c-9.5,0-12.7,7.8-12.7,17.9
		c0,6.9,2.1,14.3,10.4,14.3c6.7,0,10.3-4.6,10.3-9V265z"/>
	<path class="st0" d="M387.7,260.2v-16h6.1v47.9l0.6,7.1H389l-0.6-4.8l-0.3-0.1c-3.1,4.4-7.4,5.9-11.6,5.9
		c-11.6,0-15.4-9.1-15.4-19.6c0-13.3,6.7-21.9,18.5-21.9C382.7,258.8,385.2,259.4,387.7,260.2 M387.7,265.5c-1.8-1-4.8-1.9-8.4-1.9
		c-8.6,0-12.2,7.2-12.2,16.5c0,8.2,2.2,15.6,10.3,15.6c6.5,0,10.3-4.5,10.3-8.5V265.5z"/>
	<path class="st0" d="M433.3,268.6c0,11.7-14.1,13.6-21.8,13.6c-0.8,0-1.4-0.1-2.1-0.1c0.3,6.5,3.5,13.3,11.9,13.3
		c5.3,0,8.6-2.5,10.1-3.6l2.4,4c-2,1.7-6.6,4.5-12.9,4.5c-12.4,0-17.6-8.4-17.6-20.2c0-11.7,6.3-21.4,18.4-21.4
		C429.1,258.8,433.3,262.8,433.3,268.6 M421.5,263.4c-8.5,0-11.7,8-12,14.3c0.5,0,1,0.1,1.6,0.1c5.4,0,16.5-1.3,16.5-8.4
		C427.6,265.6,425,263.4,421.5,263.4"/>
	<path class="st0" d="M459.2,290.2c2.5,1.7,8.1,4.5,14.3,4.5c5.3,0,11.1-1.7,11.1-9.7c0-6.3-5.5-8.4-11.9-10.1
		c-7.6-2.1-15-4.9-15-14.6c0-8.8,6.8-14.6,16.7-14.6c7.1,0,13.4,3.3,17.1,7l-3.5,4.2c-4.1-3.6-8.7-5.9-13.7-5.9
		c-4.4,0-10.1,1.9-10.1,8.6c0,6.3,5.4,8.1,12.2,10.1c7.3,2.3,14.7,5.1,14.7,15c0,9.9-6.7,15.4-17.7,15.4c-7.6,0-14.6-3.1-16.8-4.8
		L459.2,290.2z"/>
	<path class="st0" d="M528.1,268.6c0,11.7-14.1,13.6-21.8,13.6c-0.8,0-1.4-0.1-2.1-0.1c0.3,6.5,3.5,13.3,11.9,13.3
		c5.3,0,8.6-2.5,10.1-3.6l2.4,4c-2,1.7-6.6,4.5-12.9,4.5c-12.4,0-17.6-8.4-17.6-20.2c0-11.7,6.3-21.4,18.4-21.4
		C523.9,258.8,528.1,262.8,528.1,268.6 M516.3,263.4c-8.5,0-11.7,8-12,14.3c0.5,0,1,0.1,1.6,0.1c5.4,0,16.5-1.3,16.5-8.4
		C522.4,265.6,519.8,263.4,516.3,263.4"/>
	<path class="st0" d="M538.1,309.9c0-6.7,4.6-10.9,10.3-14.1c-7.2-0.6-14.2-4.6-14.2-17.2c0-13.3,7.8-19.8,18.4-19.8
		c4.3,0,10.1,0.9,14.6,2.8v29.6c0,3.4-0.1,7.4-0.2,10.8c-0.6,11.2-5.9,18.1-16.5,18.1C542.4,320.1,538.1,316.3,538.1,309.9
		 M561.2,264.9c-2.4-0.8-5.3-1.4-9.2-1.4c-7,0-11.6,4.9-11.6,14.5c0,6.3,1.1,14.1,10.8,14.1c6.1,0,10.1-3.6,10.1-9.5V264.9z
		 M551.1,315.3c7.8,0,10-7.3,10-16.2v-6.1c-11.6,5.5-17,9.8-17,16C544.1,313.6,546.8,315.3,551.1,315.3"/>
	<path class="st0" d="M609.5,259.9v33.6l0.6,5.8h-5.5l-0.6-5.4h-0.2c-2.9,4.5-7.7,6.5-12.4,6.5c-8.5,0-12.7-4.4-12.7-13.5v-26.9h6.2
		v25.2c0,5.9,1.2,10.5,8.2,10.5c5.5,0,10.5-4.9,10.5-9.5v-26.1H609.5z"/>
	<path class="st0" d="M627.4,299.3h-6.1v-34l-0.5-5.4h5.3l0.7,5.7c1.9-4.4,5.4-6.8,9.9-6.8c2.5,0,4.8,0.6,6.3,1.5l-1.9,5.5
		c-1.3-0.7-3.2-1.5-5.1-1.5c-5.1,0-8.3,4.6-8.6,9.9V299.3z"/>
	<path class="st0" d="M662.4,258.8c5.5,0,16.2,1.7,16.2,19.6c0,15.4-7.7,21.9-17.6,21.9c-10.1,0-16.2-6.8-16.2-21.1
		C644.9,262.9,654.6,258.8,662.4,258.8 M672.4,279.8c0-9.5-2.8-16.2-10.5-16.2c-7.5,0-10.9,6.3-10.9,14.9c0,7.8,1.6,17.1,10.6,17.1
		C669.2,295.6,672.4,288.4,672.4,279.8"/>
	<path class="st0" d="M687.1,292.1c2.3,1.6,6.2,3.5,10.8,3.5c4.4,0,7.8-2.1,7.8-6.7c0-4.6-3.6-6-8.2-7.1c-6.3-1.5-12-3.5-12-11.3
		c0-7.9,6.3-11.6,13.2-11.6c5.6,0,10.3,2.5,13.1,5.3l-3.6,3.6c-2.6-2.5-5.8-4.3-9.8-4.3c-3.4,0-7.2,1.7-7.2,6.1
		c0,4.7,3.9,5.8,8.4,7.1c5.7,1.7,12,3.6,12,11.6c0,7.8-5.7,12-13.8,12c-6.4,0-11.6-2.4-13.2-3.8L687.1,292.1z"/>
	<path class="st1" d="M311.5,114.6V42.8c36.2-3.6,55.8,3,55.8,34.5C367.3,109.1,345.5,114.6,311.5,114.6 M254.1,217.6h84.2
		c32.3,0,67.3-9.9,67.3-50.2c0-34.8-32.3-46.1-62.4-48.6c11.9-1.1,53-7.5,53-42.2c0-46.6-64.6-44.2-75.4-44.2
		c-15.7,0-44.4,1.1-64.6,1.7v9.4c27.3,0,27.9,0,27.9,40.3v83.1c0,32.6,0,41.7-22.6,41.7h-7.5V217.6z M333.3,207.9
		c-21.8,0-21.8-5.2-21.8-47.2v-36.2c52.4-2.5,64.9,14.4,64.9,42.2C376.4,181.7,372.5,207.9,333.3,207.9 M175.1,217.6h54.9V34h-54.9
		v9.4h3.9c24.3,0,24.6,2.5,24.6,40v83.4c0,32.6,0,41.7-23.2,41.7h-5.2V217.6z M5.4,217.6h147.9l1.1-53.8h-6.1
		c-13,41.7-22.9,44.7-59.9,44.7c-27.6,0-27.6-6.9-27.6-35.6V83.4c0-34.8,0.6-40,24.6-40h8V34H5.4v9.4h3.9c24.3,0,25.1,5.5,25.1,40
		v83.4c0,35.6,0,41.7-23.7,41.7H5.4V217.6z M510.2,217.6h75.1v-9.1c-25.9,0-20.7-14.6-14.1-30.6l41.1-99.6l45.8,111.2
		c5.5,13.5,2.5,19-18.2,19v9.1h72v-9.1c-14.4,0-20.4-8.3-24.3-17.9L622.6,31h-5.5l-65.4,158.4c-4.7,11.3-9.4,16.3-18.5,16.3
		c-9.7,0-19-12.7-27.9-24.3L484.6,151c-5.5-8-19.6-24-28.7-24.3c34.2-3,55.5-21,55.5-46.6c0-44.2-45.5-48-80-48
		c-5,0-13.8,0-21.3,0.3v8.3h19.3c29.8,0,50.8,9.7,50.8,40c0,25.7-13.8,39.5-46.6,39.5H418v9.9c15.5,0,21.5,1.4,36.2,21.8l25.9,39.5
		C495.9,211.8,499.7,217.6,510.2,217.6"/>
</g>
</svg>
