<?xml version="1.0" encoding="utf-8"?>
<!-- Generator: Adobe Illustrator 17.0.0, SVG Export Plug-In . SVG Version: 6.00 Build 0)  -->
<!DOCTYPE svg PUBLIC "-//W3C//DTD SVG 1.1//EN" "http://www.w3.org/Graphics/SVG/1.1/DTD/svg11.dtd" [
	<!ENTITY ns_extend "http://ns.adobe.com/Extensibility/1.0/">
	<!ENTITY ns_ai "http://ns.adobe.com/AdobeIllustrator/10.0/">
	<!ENTITY ns_graphs "http://ns.adobe.com/Graphs/1.0/">
	<!ENTITY ns_vars "http://ns.adobe.com/Variables/1.0/">
	<!ENTITY ns_imrep "http://ns.adobe.com/ImageReplacement/1.0/">
	<!ENTITY ns_sfw "http://ns.adobe.com/SaveForWeb/1.0/">
	<!ENTITY ns_custom "http://ns.adobe.com/GenericCustomNamespace/1.0/">
	<!ENTITY ns_adobe_xpath "http://ns.adobe.com/XPath/1.0/">
]>
<svg version="1.1" id="Layer_1" xmlns:x="&ns_extend;" xmlns:i="&ns_ai;" xmlns:graph="&ns_graphs;"
	 xmlns="http://www.w3.org/2000/svg" xmlns:xlink="http://www.w3.org/1999/xlink" x="0px" y="0px" width="220px" height="60px"
	 viewBox="0 0 220 60" enable-background="new 0 0 220 60" xml:space="preserve">
<metadata>
	<sfw  xmlns="&ns_sfw;">
		<slices></slices>
		<sliceSourceBounds  width="218.269" height="55.592" x="188.365" y="393.248" bottomLeftOrigin="true"></sliceSourceBounds>
	</sfw>
</metadata>
<g>
	<g>
		<g>
			<path fill="#009982" d="M26.332,3.7c0,0-6.542-6.771-14.238,4.356C4.399,19.184,6.537,26.84,6.537,26.84s5.476,4.259,5.609,2.241
				c0.135-2.018-0.123-16.955,11.744-22.738C23.891,6.344,28.102,4.901,26.332,3.7z"/>
			<path fill="#009982" d="M7.654,35.504l3.681,1.743c0,0,1.406,0.514,1.583,1.164c0.177,0.652,0.234,2.279-1.23,1.524
				C10.223,39.176,6.987,36.525,7.654,35.504z"/>
			<path fill="#009982" d="M17.673,42.947c0,0,6.99,6.309,13.905-5.32C38.494,26,35.837,18.508,35.837,18.508
				s-5.755-3.875-5.751-1.853c0.005,2.021,1.284,16.906-10.159,23.489C19.927,40.144,15.825,41.872,17.673,42.947z"/>
			<path fill="#009982" d="M30.282,5.876c1.512,0.656,4.1,2.973,3.504,4.035l-2.968-1.378"/>
			<path fill="#005597" d="M17.213,14.035c0,0,4.274-6.601,6.89-6.074c2.617,0.526,16.121,2.246,16.256,11.509
				c0,0-0.622,0.412-1.537-0.772s-11.589-7.03-20.278-4.009C18.543,14.689,16.34,15.282,17.213,14.035z"/>
			<path fill="#005597" d="M5.769,18.616c0,0,1.759-5.131,3.005-7.275c1.305-2.244-0.981-1.262-0.981-1.262s-6.233,3.344-6.81,8.882
				c-0.578,5.539,1.122,4.886,1.88,3.649C3.765,21.143,5.486,19.371,5.769,18.616z"/>
			<path fill="#005597" d="M26.02,32.284c0,0-3.963,6.568-6.578,6.042C16.825,37.8,3.32,36.078,3.185,26.817
				c0,0,0.623-0.412,1.538,0.772c0.915,1.185,11.278,7.062,19.967,4.042C24.69,31.632,26.895,31.036,26.02,32.284z"/>
			<path fill="#005597" d="M36.682,28.321c0,0-0.985,4.259-2.122,6.463c-1.137,2.203,0.76,0.817,0.76,0.817s6.665-2.736,7.243-8.275
				s-1.347-4.998-1.881-3.649C39.952,25.518,36.965,27.566,36.682,28.321z"/>
		</g>
		<g>
			<polygon fill="#009982" points="79.462,43.703 186.682,43.703 186.682,43.703 			"/>
			<rect x="79.462" y="43.461" fill="#009982" width="107.22" height="0.484"/>
		</g>
		<path fill="#005597" d="M74.412,11.361h-0.14c-1.802-2.105-5.138-2.728-7.816-2.72c-6.853,0-12.068,4.661-12.068,11.995
			c0.004,7.345,5.63,12.9,12.574,12.894c2.019,0,4.129-0.278,6.098-0.875l-0.007-6.572c0-2.079-0.038-4.31-2.012-5.131v-0.147
			l6.717-0.011v0.147c-0.231,0.547-0.231,1.267-0.231,1.955l0.016,10.486c0.006,0.684-0.044,1.414,0.224,2.058
			c-3.508,0.69-6.94,1.364-10.498,1.364c-11.243,0.015-17.874-6.343-17.884-15.518C49.37,11.474,56.882,5.368,67.501,5.349
			c2.326,0,4.613,0.271,6.901,0.775L74.412,11.361z"/>
		<path fill="#005597" d="M89.151,24.803l-2.281,6.416c-0.913,2.561-1.223,3.883,0.887,4.706v0.147l-8.085,0.006v-0.154
			c2.54-1.305,3.303-3.868,4.264-6.469l7.308-19.004c0.612-1.663,1.449-3.575-0.666-4.252V6.078l6.947-0.025l9.153,23.375
			c1.014,2.599,1.816,5.16,4.324,6.48v0.141l-9.011,0.002v-0.135c2.155-0.999,1.8-1.513,0.601-4.71l-2.369-6.414L89.151,24.803z
			 M94.627,9.932l-4.333,11.483h8.644L94.627,9.932z"/>
		<path fill="#005597" d="M125.765,32.736c2.987,0.189,5.594-0.854,7.794-2.788h0.115l-2.277,6.086h-18.04v-0.137
			c2.229-0.814,1.973-4.181,1.954-6.252l-0.009-17.177c0-2.105,0.256-5.435-1.985-6.304v-0.12h8.394v0.113
			c-2.254,0.878-1.929,4.261-1.929,6.302l0.018,19.874L125.765,32.736z"/>
		<path fill="#005597" d="M141.676,32.177l5.575,0.545c2.896,0.265,5.928-0.695,8.125-2.694h0.131l-1.982,5.97l-18.305,0.023V35.88
			c2.245-0.821,1.98-4.207,1.98-6.259l-0.017-17.182c0-2.107,0.248-5.433-1.993-6.292V6.024l14.049-0.019
			c0.76,0,1.505,0.086,2.071-0.224h0.128l0.008,5.316h-0.126c-1.357-1.634-3.174-1.809-5.19-1.809c-1.53,0-3.066,0.036-4.485,0.319
			l0.013,8.481h5.223c0.714,0,1.412,0,1.926-0.278h0.141l0.011,4.834h-0.13c-0.705-1.319-2.549-1.267-3.91-1.267h-3.249
			L141.676,32.177z"/>
		<path fill="#005597" d="M162.944,30.053c0,2.551-0.044,4.392,2.292,5.787v0.151l-7.763,0.006V35.85
			c2.317-1.406,2.317-3.235,2.317-5.783l-0.025-18.204c-0.006-2.552-0.006-4.379-2.292-5.727V6.005l6.414-0.011v0.049
			c0.185,0.532,0.345,0.753,0.659,1.126l0.621,0.917l16.091,21.05l-0.021-17.288c0-2.56,0.042-4.384-2.285-5.74v-0.13h7.727V6.1
			c-2.275,1.357-2.275,3.188-2.275,5.748l0.023,25.575c-3.117-1.09-4.478-2.584-6.416-5.194l-15.087-19.81L162.944,30.053z"/>
		<path fill="#005597" d="M219.133,20.449c0.105,9.302-6.882,16.143-15.175,16.232c-8.262,0.084-15.297-6.313-15.394-15.647
			c-0.091-8.664,6.703-15.994,15.47-15.864C212.788,5.016,219.055,12.24,219.133,20.449 M193.307,20.573
			c0.067,6.383,4.268,12.894,10.821,12.81c6.332-0.063,10.331-5.171,10.259-11.968c-0.069-6.661-4.015-13.036-10.611-12.966
			C197.312,8.525,193.231,13.685,193.307,20.573"/>
	</g>
	<g>
		<path fill="#009982" d="M113.533,53.371c-0.112,0.295-0.799,2.214-0.799,2.66c0,0.307,0.126,0.644,0.546,0.644h0.49
			c0.14,0,0.155,0.059,0.155,0.114v0.307c0,0.114-0.015,0.156-0.126,0.156c-0.182,0-0.757-0.042-1.906-0.042
			c-1.022,0-1.33,0.042-1.527,0.042c-0.084,0-0.098-0.084-0.098-0.185v-0.265c0-0.084,0.014-0.126,0.098-0.126h0.364
			c0.337,0,0.672-0.194,0.953-0.614c0.196-0.295,1.19-2.732,1.653-3.965c0.112-0.282,1.246-3.291,1.372-3.67
			c0.042-0.139,0.113-0.324,0.015-0.476c-0.042-0.055-0.099-0.126-0.099-0.181c0-0.042,0.028-0.101,0.14-0.126
			c0.448-0.101,1.36-0.463,1.569-0.703c0.07-0.067,0.112-0.126,0.183-0.126c0.083,0,0.112,0.084,0.154,0.24
			c0.266,0.884,1.358,4.019,1.625,4.916c0.322,1.095,1.233,3.7,1.429,4.078c0.238,0.459,0.602,0.627,0.812,0.627h0.477
			c0.084,0,0.098,0.059,0.098,0.126v0.265c0,0.084-0.014,0.185-0.126,0.185c-0.266,0-0.56-0.042-2.353-0.042
			c-1.163,0-1.653,0.042-1.933,0.042c-0.141,0-0.155-0.084-0.155-0.185v-0.265c0-0.067,0.014-0.126,0.084-0.126h0.392
			c0.378,0,0.504-0.139,0.42-0.505c-0.126-0.501-0.672-2.294-0.841-2.799L113.533,53.371L113.533,53.371z M116.475,52.811
			c-0.126-0.421-0.953-3.363-1.051-3.712c-0.056-0.21-0.084-0.307-0.154-0.307c-0.084,0-0.126,0.055-0.168,0.181
			c-0.07,0.181-1.274,3.489-1.387,3.839L116.475,52.811L116.475,52.811z"/>
		<path fill="#009982" d="M129.033,50.833c0-1.035,0-1.932-0.015-2.311c-0.014-0.463-0.196-0.699-0.392-0.699h-0.561
			c-0.069,0-0.084-0.042-0.084-0.097v-0.379c0-0.072,0.015-0.101,0.084-0.101c0.126,0,0.561,0.042,2.088,0.042
			c0.784,0,2.017-0.042,2.592-0.042c1.092,0,1.905,0.396,2.479,0.926c0.504,0.463,0.799,1.01,0.799,1.528
			c0,1.78-1.331,2.576-2.563,2.69v0.097c0.434,0.139,0.658,0.408,0.924,0.745c0.182,0.223,0.952,1.469,1.065,1.637
			c0.084,0.126,0.841,1.191,1.121,1.511c0.168,0.185,0.7,0.295,1.024,0.295c0.097,0,0.109,0.059,0.109,0.114v0.337
			c0,0.084-0.013,0.126-0.109,0.126c-0.114,0-0.478-0.042-1.556-0.042c-0.406,0-0.925,0.025-1.331,0.042
			c-0.42-0.324-1.288-1.949-1.527-2.424c-0.476-0.951-1.05-1.991-1.722-1.991h-0.477v0.715c0,0.825,0.042,2.395,0.071,2.576
			c0.027,0.295,0.14,0.547,0.35,0.547h0.573c0.099,0,0.112,0.042,0.112,0.114v0.337c0,0.097-0.014,0.126-0.224,0.126
			c-0.014,0-0.364-0.042-1.835-0.042c-1.485,0-1.807,0.042-1.961,0.042c-0.112,0-0.112-0.042-0.112-0.143v-0.32
			c0-0.072,0-0.114,0.07-0.114h0.421c0.307,0,0.56-0.097,0.56-0.446c0.028-1.389,0.028-2.706,0.028-4.036v-1.36H129.033z
			 M130.994,52.348c0.266,0.013,0.434,0.013,0.561,0.013c1.849,0,2.283-1.764,2.283-2.424c0-0.644-0.224-1.258-0.533-1.566
			c-0.504-0.45-1.134-0.619-1.555-0.619c-0.238,0-0.42,0.03-0.531,0.126c-0.084,0.059-0.126,0.211-0.155,0.379L130.994,52.348z"/>
		<path fill="#009982" d="M147.754,47.937h-0.488c-0.45,0-1.29,0.012-1.877,0.223c-0.309,0.223-0.926,1.077-1.275,1.582
			c-0.042,0.067-0.084,0.109-0.139,0.097l-0.309-0.109c-0.057-0.017-0.07-0.084-0.057-0.126c0.156-0.589,0.617-2.441,0.673-2.719
			c0.042-0.181,0.112-0.24,0.211-0.24c0.097,0,0.139,0.059,0.265,0.211c0.156,0.198,0.421,0.324,0.926,0.349
			c0.741,0.042,1.33,0.084,2.786,0.084h0.812c1.528,0,2.13-0.055,2.719-0.084c0.307-0.013,0.854-0.181,1.021-0.349
			c0.141-0.139,0.225-0.211,0.322-0.211c0.099,0,0.141,0.059,0.168,0.227c0.042,0.307,0.307,2.041,0.421,2.786
			c0.013,0.055-0.015,0.114-0.055,0.126l-0.295,0.109c-0.057,0.017-0.084-0.025-0.141-0.122c-0.309-0.505-0.854-1.233-1.206-1.57
			c-0.349-0.211-1.595-0.265-1.919-0.265h-0.461v3.851c0,0.194,0,4.116,0.015,4.327c0.027,0.349,0.139,0.56,0.476,0.56h0.631
			c0.126,0,0.139,0.042,0.139,0.143v0.32c0,0.072-0.013,0.114-0.139,0.114c-0.141,0-0.589-0.042-2.144-0.042
			c-1.484,0-2.073,0.042-2.271,0.042c-0.109,0-0.124-0.059-0.124-0.168v-0.265c0-0.101,0.015-0.143,0.099-0.143h0.713
			c0.28,0,0.448-0.168,0.476-0.421c0.027-0.29,0.027-4.592,0.027-4.857L147.754,47.937L147.754,47.937z"/>
	</g>
</g>
</svg>
