<?xml version="1.0" encoding="utf-8"?>
<!-- Generator: Adobe Illustrator 17.0.0, SVG Export Plug-In . SVG Version: 6.00 Build 0)  -->
<!DOCTYPE svg PUBLIC "-//W3C//DTD SVG 1.1//EN" "http://www.w3.org/Graphics/SVG/1.1/DTD/svg11.dtd" [
	<!ENTITY ns_extend "http://ns.adobe.com/Extensibility/1.0/">
	<!ENTITY ns_ai "http://ns.adobe.com/AdobeIllustrator/10.0/">
	<!ENTITY ns_graphs "http://ns.adobe.com/Graphs/1.0/">
	<!ENTITY ns_vars "http://ns.adobe.com/Variables/1.0/">
	<!ENTITY ns_imrep "http://ns.adobe.com/ImageReplacement/1.0/">
	<!ENTITY ns_sfw "http://ns.adobe.com/SaveForWeb/1.0/">
	<!ENTITY ns_custom "http://ns.adobe.com/GenericCustomNamespace/1.0/">
	<!ENTITY ns_adobe_xpath "http://ns.adobe.com/XPath/1.0/">
]>
<svg version="1.1" id="Layer_1" xmlns:x="&ns_extend;" xmlns:i="&ns_ai;" xmlns:graph="&ns_graphs;"
	 xmlns="http://www.w3.org/2000/svg" xmlns:xlink="http://www.w3.org/1999/xlink" x="0px" y="0px" width="220px" height="60px"
	 viewBox="0 0 220 60" enable-background="new 0 0 220 60" xml:space="preserve">
<metadata>
	<sfw  xmlns="&ns_sfw;">
		<slices></slices>
		<sliceSourceBounds  width="218.267" height="55.484" x="188.367" y="392.563" bottomLeftOrigin="true"></sliceSourceBounds>
	</sfw>
</metadata>
<g>
	<g>
		<g>
			<polygon fill="#009982" points="79.059,43.793 186.586,43.793 186.586,43.793 			"/>
			<rect x="79.059" y="43.551" fill="#009982" width="107.527" height="0.484"/>
		</g>
		<path fill="#005597" d="M73.995,11.357h-0.142c-1.807-2.111-5.153-2.736-7.837-2.729c-6.873,0-12.103,4.676-12.103,12.031
			c0.004,7.366,5.647,12.937,12.61,12.929c2.026,0,4.142-0.277,6.116-0.877l-0.008-6.589c0-2.087-0.037-4.322-2.017-5.145v-0.149
			l6.737-0.011v0.147c-0.232,0.55-0.232,1.272-0.232,1.961l0.017,10.519c0.006,0.684-0.044,1.417,0.225,2.064
			c-3.518,0.691-6.961,1.366-10.528,1.366c-11.276,0.015-17.925-6.361-17.935-15.563C48.88,11.47,56.413,5.347,67.064,5.328
			c2.333,0,4.627,0.272,6.922,0.778L73.995,11.357z"/>
		<path fill="#005597" d="M88.776,24.837l-2.288,6.436c-0.915,2.57-1.226,3.894,0.89,4.719v0.147l-8.108,0.006v-0.153
			c2.547-1.31,3.312-3.879,4.275-6.489l7.329-19.059c0.614-1.667,1.453-3.585-0.669-4.265v-0.12l6.967-0.025l9.18,23.443
			c1.017,2.605,1.821,5.174,4.336,6.499v0.141l-9.037,0.002v-0.134c2.161-1.001,1.805-1.518,0.603-4.725l-2.375-6.432L88.776,24.837
			z M94.268,9.924L89.922,21.44h8.67L94.268,9.924z"/>
		<path fill="#005597" d="M125.496,32.795c2.997,0.189,5.61-0.859,7.816-2.798h0.114l-2.283,6.104H113.05v-0.136
			c2.235-0.817,1.98-4.194,1.96-6.272l-0.009-17.225c0-2.11,0.256-5.45-1.99-6.321V6.025h8.417v0.112
			c-2.261,0.88-1.934,4.274-1.934,6.32l0.019,19.933L125.496,32.795z"/>
		<path fill="#005597" d="M141.452,32.233l5.59,0.548c2.905,0.265,5.945-0.699,8.149-2.702h0.13l-1.988,5.987l-18.355,0.023v-0.141
			c2.25-0.823,1.986-4.219,1.986-6.279l-0.017-17.229c0-2.113,0.248-5.449-1.998-6.311V6.005l14.09-0.02
			c0.762,0,1.509,0.087,2.076-0.225h0.128l0.008,5.332h-0.126c-1.362-1.639-3.182-1.815-5.206-1.815
			c-1.532,0-3.073,0.037-4.496,0.32l0.012,8.505h5.24c0.716,0,1.415,0,1.931-0.279h0.141l0.011,4.847h-0.132
			c-0.705-1.32-2.555-1.27-3.919-1.27h-3.26L141.452,32.233z"/>
		<path fill="#005597" d="M162.78,30.104c0,2.557-0.044,4.404,2.299,5.804v0.151l-7.784,0.006v-0.147
			c2.322-1.411,2.322-3.245,2.322-5.8l-0.025-18.255c-0.006-2.56-0.006-4.393-2.296-5.745V5.985l6.432-0.011v0.05
			c0.185,0.533,0.347,0.756,0.661,1.128l0.621,0.92l16.137,21.109l-0.021-17.337c0-2.567,0.044-4.396-2.29-5.757v-0.13h7.75V6.08
			c-2.284,1.361-2.284,3.197-2.284,5.765l0.025,25.65c-3.126-1.094-4.492-2.593-6.436-5.208L162.76,12.418L162.78,30.104z"/>
		<path fill="#005597" d="M219.133,20.471c0.105,9.329-6.902,16.191-15.219,16.277c-8.286,0.086-15.341-6.331-15.438-15.689
			c-0.09-8.69,6.722-16.041,15.513-15.91C212.77,4.994,219.055,12.239,219.133,20.471 M193.233,20.595
			c0.067,6.403,4.278,12.933,10.851,12.849c6.352-0.065,10.359-5.187,10.29-12.003c-0.069-6.681-4.029-13.075-10.643-13.003
			C197.249,8.513,193.157,13.687,193.233,20.595"/>
		<g>
			<path fill="#009982" d="M26.047,4.471c0,0-6.47-6.696-14.078,4.308C4.36,19.782,6.474,27.352,6.474,27.352
				s5.415,4.211,5.547,2.217c0.133-1.996-0.122-16.765,11.613-22.483C23.634,7.085,27.797,5.658,26.047,4.471z"/>
			<path fill="#009982" d="M7.578,35.919l3.64,1.723c0,0,1.39,0.508,1.564,1.153c0.175,0.644,0.231,2.252-1.216,1.505
				C10.118,39.55,6.919,36.928,7.578,35.919z"/>
			<path fill="#009982" d="M17.485,43.281c0,0,6.913,6.237,13.75-5.261c6.838-11.499,4.211-18.907,4.211-18.907
				s-5.69-3.831-5.686-1.831c0.004,1.999,1.269,16.717-10.046,23.226C19.714,40.508,15.658,42.216,17.485,43.281z"/>
			<path fill="#009982" d="M29.953,6.624c1.495,0.647,4.054,2.939,3.465,3.989l-2.936-1.362"/>
			<path fill="#005597" d="M17.03,14.691c0,0,4.226-6.526,6.813-6.007c2.587,0.52,15.941,2.222,16.075,11.38
				c0,0-0.615,0.409-1.521-0.762c-0.905-1.172-11.459-6.952-20.05-3.965C18.347,15.336,16.167,15.924,17.03,14.691z"/>
			<path fill="#005597" d="M5.715,19.22c0,0,1.739-5.074,2.972-7.193c1.29-2.22-0.97-1.248-0.97-1.248s-6.163,3.306-6.734,8.783
				s1.109,4.83,1.86,3.608C3.732,21.72,5.435,19.967,5.715,19.22z"/>
			<path fill="#005597" d="M25.74,32.734c0,0-3.919,6.495-6.507,5.976c-2.587-0.521-15.941-2.223-16.075-11.38
				c0,0,0.616-0.409,1.521,0.762c0.906,1.172,11.152,6.984,19.744,3.997C24.424,32.09,26.604,31.502,25.74,32.734z"/>
			<path fill="#005597" d="M36.281,28.817c0,0-0.974,4.211-2.098,6.39s0.75,0.808,0.75,0.808s6.591-2.706,7.162-8.183
				s-1.333-4.944-1.861-3.609C39.515,26.046,36.561,28.07,36.281,28.817z"/>
		</g>
	</g>
	<g>
		<path fill="#009982" d="M80.523,54.637c0.056,0,0.098,0.015,0.098,0.111c0.028,0.435,0.224,1.035,0.56,1.579
			c0.405,0.644,1.089,0.951,1.76,0.951s1.747-0.447,1.747-1.551c0-1.159-0.224-1.495-2.04-2.179c-0.419-0.153-1.313-0.6-2.026-1.215
			c-0.489-0.434-0.699-1.173-0.699-1.986c0-0.852,0.21-1.423,1.049-2.053c0.629-0.474,1.16-0.67,2.012-0.67
			c1.02,0,1.565,0.166,1.858,0.279c0.14,0.055,0.238,0.027,0.322-0.071l0.182-0.181c0.056-0.057,0.125-0.084,0.209-0.084
			c0.099,0,0.126,0.153,0.139,0.237l0.224,2.389c0,0.057-0.027,0.071-0.069,0.084l-0.308,0.099c-0.07,0.027-0.14,0-0.182-0.099
			c-0.153-0.405-0.391-0.949-0.866-1.453c-0.35-0.391-0.769-0.588-1.398-0.588c-1.047,0-1.481,0.909-1.481,1.272
			c0,0.517,0.015,0.936,0.363,1.287c0.363,0.376,1.16,0.712,1.845,0.907c0.671,0.195,1.215,0.546,1.788,1.062
			c0.545,0.489,0.768,1.104,0.768,2.082c0,1.705-1.215,3.088-3.061,3.088c-1.257,0-1.914-0.21-2.501-0.6
			c-0.167-0.113-0.251-0.155-0.321-0.155c-0.084,0-0.14,0.099-0.224,0.239c-0.084,0.153-0.153,0.166-0.251,0.166
			c-0.154,0-0.21-0.069-0.196-0.222l0.224-2.656c0.014-0.097,0.056-0.097,0.112-0.097L80.523,54.637z"/>
		<path fill="#009982" d="M97.226,52.374c0.642,0,1.257-0.042,1.425-0.084c0.237-0.057,0.432-0.183,0.642-0.435
			c0.153-0.208,0.321-0.6,0.321-0.865c0-0.099,0.042-0.126,0.112-0.126l0.377,0.042c0.07,0.013,0.126,0.027,0.111,0.111
			c-0.041,0.237-0.041,0.963-0.041,1.453c0,0.63,0.056,1.299,0.083,1.593c0.015,0.084-0.042,0.099-0.111,0.111l-0.336,0.071
			c-0.056,0.013-0.083-0.015-0.111-0.113c-0.056-0.222-0.195-0.544-0.279-0.712c-0.154-0.267-0.489-0.447-0.768-0.489
			c-0.378-0.057-0.811-0.084-1.425-0.084v0.837c0,0.756,0.069,2.11,0.069,2.362c0,0.726,0.154,0.978,0.336,1.062
			c0.209,0.084,0.474,0.126,1.173,0.126c0.237,0,0.824-0.015,1.118-0.042c0.279-0.027,0.699-0.168,1.062-0.462
			c0.363-0.292,1.145-1.159,1.425-1.495c0.056-0.055,0.098-0.069,0.14-0.042l0.237,0.141c0.056,0.027,0.07,0.069,0.056,0.111
			l-0.629,2.11c-0.042,0.126-0.139,0.21-0.307,0.21c-0.069,0-0.377-0.015-1.271-0.027c-0.908,0-2.39-0.015-4.807-0.015
			c-0.516,0-0.908,0.015-1.187,0.015c-0.294,0.013-0.475,0.027-0.601,0.027c-0.098,0-0.125-0.042-0.125-0.153V57.32
			c0-0.084,0.041-0.126,0.14-0.126h0.419c0.642,0,0.699-0.099,0.699-0.588v-4.679c0-1.161-0.028-2.88-0.042-3.019
			c-0.056-0.447-0.196-0.546-0.573-0.546h-0.545c-0.057,0-0.07-0.042-0.07-0.138v-0.336c0-0.042,0.014-0.099,0.098-0.099
			c0.308,0,0.797,0.042,2.069,0.042l4.904-0.013c0.224,0,0.489-0.029,0.56-0.029c0.069,0,0.098,0.029,0.111,0.071
			c0.057,0.195,0.517,2.11,0.573,2.248c0.028,0.071,0.028,0.099-0.042,0.141l-0.224,0.111c-0.056,0.027-0.126,0.015-0.168-0.055
			c-0.069-0.113-1.327-1.371-1.648-1.566c-0.294-0.182-0.685-0.363-1.062-0.378l-1.844-0.055L97.226,52.374z"/>
		<path fill="#009982" d="M119.743,56.369c0,0.197,0.056,0.336,0.056,0.447c0,0.113-0.084,0.168-0.224,0.224
			c-1.132,0.573-2.32,0.894-4.095,0.894c-1.453,0-3.088-0.462-4.052-1.593c-0.852-0.964-1.286-2.152-1.286-3.842
			c0-1.272,0.6-2.628,1.621-3.508c1.02-0.894,2.278-1.369,3.955-1.369c1.411,0,2.459,0.39,2.92,0.684
			c0.168,0.097,0.266,0.069,0.35-0.042l0.14-0.225c0.069-0.097,0.098-0.138,0.182-0.138c0.153,0,0.195,0.097,0.195,0.25l0.21,2.88
			c0.014,0.168,0,0.237-0.055,0.25l-0.392,0.084c-0.084,0.015-0.126-0.013-0.168-0.139c-0.224-0.684-0.671-1.578-1.271-2.124
			c-0.545-0.517-1.258-0.867-2.208-0.867c-0.753,0-1.452,0.239-2.11,1.05c-0.642,0.768-1.118,1.927-1.118,3.185
			c0,1.65,0.462,3.088,1.215,3.844c0.657,0.657,1.188,0.949,2.138,0.949c0.727,0,1.118-0.055,1.58-0.279
			c0.293-0.139,0.321-0.586,0.321-1.312v-1.008c0-0.502-0.14-0.643-0.489-0.643h-0.587c-0.084,0-0.098-0.057-0.098-0.126v-0.349
			c0-0.057,0.014-0.099,0.098-0.099c0.125,0,0.81,0.042,2.068,0.042c1.286,0,1.802-0.042,1.915-0.042
			c0.111,0,0.126,0.042,0.126,0.111v0.351c0,0.084-0.015,0.111-0.099,0.111h-0.405c-0.251,0-0.432,0.099-0.432,0.504L119.743,56.369
			L119.743,56.369z"/>
		<path fill="#009982" d="M128.72,49.077c0-0.489-0.099-0.714-0.391-0.714h-0.657c-0.084,0-0.098-0.027-0.098-0.126v-0.334
			c0-0.084,0.014-0.113,0.126-0.113c0.14,0,0.824,0.042,2.291,0.042c1.229,0,1.9-0.042,2.054-0.042c0.111,0,0.126,0.029,0.126,0.113
			v0.363c0,0.069-0.015,0.097-0.112,0.097h-0.474c-0.475,0-0.713,0.267-0.741,0.546c-0.014,0.153-0.028,1.104-0.028,1.816v0.924
			c0,0.739,0.057,2.515,0.07,2.962c0.014,0.642,0.14,1.27,0.447,1.662c0.461,0.558,1.118,0.783,1.747,0.783
			c0.517,0,1.271-0.267,1.649-0.615c0.558-0.504,0.881-1.272,0.881-2.277v-2.152c0-1.176-0.141-2.712-0.196-3.033
			c-0.056-0.363-0.279-0.615-0.517-0.615h-0.447c-0.084,0-0.099-0.042-0.099-0.111V47.89c0-0.069,0.015-0.099,0.099-0.099
			c0.14,0,0.782,0.042,1.732,0.042c0.756,0,1.203-0.042,1.329-0.042c0.124,0,0.138,0.057,0.138,0.126v0.309
			c0,0.084-0.015,0.138-0.084,0.138h-0.432c-0.531,0-0.573,0.393-0.601,0.531c-0.027,0.195-0.027,2.124-0.027,2.32
			s-0.028,2.641-0.07,3.187c-0.084,1.146-0.461,2.026-1.188,2.668c-0.614,0.546-1.565,0.867-2.473,0.867
			c-0.657,0-1.551-0.099-2.138-0.351c-0.671-0.292-1.285-0.949-1.621-1.843c-0.237-0.6-0.293-1.537-0.293-3.367v-3.299H128.72z"/>
		<path fill="#009982" d="M145.745,51.367c0-1.033,0-1.927-0.013-2.305c-0.015-0.462-0.195-0.699-0.393-0.699h-0.558
			c-0.069,0-0.084-0.042-0.084-0.097v-0.378c0-0.069,0.015-0.099,0.084-0.099c0.126,0,0.558,0.042,2.082,0.042
			c0.783,0,2.011-0.042,2.584-0.042c1.089,0,1.902,0.393,2.473,0.924c0.504,0.46,0.798,1.006,0.798,1.522
			c0,1.776-1.327,2.572-2.557,2.683v0.099c0.432,0.138,0.657,0.405,0.922,0.741c0.183,0.222,0.951,1.467,1.062,1.633
			c0.084,0.126,0.838,1.188,1.117,1.509c0.168,0.183,0.699,0.294,1.02,0.294c0.099,0,0.113,0.057,0.113,0.111v0.336
			c0,0.084-0.015,0.126-0.113,0.126c-0.111,0-0.474-0.042-1.551-0.042c-0.405,0-0.922,0.027-1.327,0.042
			c-0.42-0.321-1.285-1.942-1.522-2.418c-0.477-0.949-1.05-1.984-1.719-1.984h-0.474v0.714c0,0.823,0.042,2.389,0.069,2.569
			c0.027,0.294,0.139,0.546,0.348,0.546h0.573c0.099,0,0.111,0.042,0.111,0.111v0.336c0,0.099-0.013,0.126-0.222,0.126
			c-0.015,0-0.363-0.042-1.831-0.042c-1.482,0-1.803,0.042-1.956,0.042c-0.111,0-0.111-0.042-0.111-0.141v-0.321
			c0-0.069,0-0.111,0.069-0.111h0.42c0.307,0,0.558-0.099,0.558-0.447c0.027-1.383,0.027-2.698,0.027-4.024L145.745,51.367
			L145.745,51.367z M147.701,52.876c0.267,0.015,0.434,0.015,0.558,0.015c1.845,0,2.278-1.761,2.278-2.418
			c0-0.642-0.222-1.258-0.529-1.564c-0.504-0.447-1.133-0.615-1.551-0.615c-0.237,0-0.42,0.027-0.531,0.126
			c-0.084,0.057-0.126,0.21-0.153,0.378L147.701,52.876z"/>
		<path fill="#009982" d="M163.164,57.026c-0.993-0.6-2.055-2.11-2.055-4.15c0-0.852,0.225-2.179,1.299-3.478
			c1.23-1.495,2.809-1.774,4.066-1.774c1.161,0,2.236,0.181,3.411,1.102c1.06,0.84,1.914,2.25,1.914,4.179
			c0,1.018-0.323,2.08-1.05,3.059c-0.907,1.131-2.095,1.971-4.303,1.971C165.483,57.935,164.268,57.711,163.164,57.026z
			 M169.604,53.017c0-3.061-2.011-4.738-3.184-4.738c-0.279,0-0.978-0.069-1.831,0.756c-0.825,0.783-1.245,2.248-1.245,3.394
			c0,3.577,2.055,4.849,3.214,4.849C169.144,57.278,169.604,54.163,169.604,53.017z"/>
		<path fill="#009982" d="M180.3,54.637c0.057,0,0.099,0.015,0.099,0.111c0.027,0.435,0.222,1.035,0.558,1.579
			c0.405,0.644,1.089,0.951,1.759,0.951c0.672,0,1.747-0.447,1.747-1.551c0-1.159-0.222-1.495-2.038-2.179
			c-0.42-0.153-1.314-0.6-2.026-1.215c-0.489-0.434-0.699-1.173-0.699-1.986c0-0.852,0.21-1.423,1.047-2.053
			c0.628-0.474,1.159-0.67,2.011-0.67c1.02,0,1.566,0.166,1.86,0.279c0.138,0.055,0.237,0.027,0.321-0.071l0.181-0.181
			c0.057-0.057,0.126-0.084,0.21-0.084c0.099,0,0.126,0.153,0.141,0.237l0.222,2.389c0,0.057-0.027,0.071-0.069,0.084l-0.309,0.099
			c-0.069,0.027-0.138,0-0.181-0.099c-0.153-0.405-0.39-0.949-0.867-1.453c-0.348-0.391-0.768-0.588-1.396-0.588
			c-1.05,0-1.482,0.909-1.482,1.272c0,0.517,0.015,0.936,0.363,1.287c0.363,0.376,1.161,0.712,1.845,0.907
			c0.67,0.195,1.215,0.546,1.788,1.062c0.544,0.489,0.768,1.104,0.768,2.082c0,1.705-1.215,3.088-3.061,3.088
			c-1.258,0-1.914-0.21-2.5-0.6c-0.168-0.113-0.252-0.155-0.321-0.155c-0.084,0-0.141,0.099-0.225,0.239
			c-0.084,0.153-0.153,0.166-0.252,0.166c-0.153,0-0.21-0.069-0.195-0.222l0.225-2.656c0.013-0.097,0.055-0.097,0.111-0.097
			L180.3,54.637z"/>
	</g>
</g>
</svg>
